<svg width="512" height="512" xmlns="http://www.w3.org/2000/svg">

 <g>
  <title>background</title>
  <rect fill="none" id="canvas_background" height="602" width="802" y="-1" x="-1"/>
 </g>
 <g>
  <title>Layer 1</title>
  <g id="svg_1">
   <path id="svg_2" fill="#b2b2b2" class="active-path" d="m256,0c-141.164063,0 -256,114.835938 -256,256s114.835938,256 256,256s256,-114.835938 256,-256s-114.835938,-256 -256,-256zm112,277.332031l-90.667969,0l0,90.667969c0,11.777344 -9.554688,21.332031 -21.332031,21.332031s-21.332031,-9.554688 -21.332031,-21.332031l0,-90.667969l-90.667969,0c-11.777344,0 -21.332031,-9.554688 -21.332031,-21.332031s9.554688,-21.332031 21.332031,-21.332031l90.667969,0l0,-90.667969c0,-11.777344 9.554688,-21.332031 21.332031,-21.332031s21.332031,9.554688 21.332031,21.332031l0,90.667969l90.667969,0c11.777344,0 21.332031,9.554688 21.332031,21.332031s-9.554688,21.332031 -21.332031,21.332031zm0,0"/>
  </g>
 </g>
</svg>